HIERARCHY
ROOT Hips
{
	OFFSET 0.000000 0.000000 0.000000
	CHANNELS 6 Xposition Yposition Zposition Xrotation Yrotation Zrotation
	JOINT LeftUpLeg_virtual
	{
		OFFSET 0.000000 0.000000 0.000000
		CHANNELS 3 Xrotation Yrotation Zrotation
		JOINT LeftUpLeg
		{
			OFFSET 10.205400 -3.823500 0.155100
			CHANNELS 3 Xrotation Yrotation Zrotation
			JOINT LeftLeg
			{
				OFFSET 0.708757 -12.982077 0.567790
				CHANNELS 3 Xrotation Yrotation Zrotation
				JOINT LeftFoot
				{
					OFFSET -0.708756 -10.717838 -2.184338
					CHANNELS 3 Xrotation Yrotation Zrotation
					JOINT LeftToeBase
					{
						OFFSET 0.108149 -7.191104 7.560241
						CHANNELS 3 Xrotation Yrotation Zrotation
						JOINT LeftToe_End
						{
							OFFSET 0.070230 0.081724 4.490308
							CHANNELS 3 Xrotation Yrotation Zrotation
							End Site
							{
								OFFSET 0 0 0
							}
						}
					}
				}
			}
		}
	}
	JOINT RightUpLeg_virtual
	{
		OFFSET 0.000000 0.000000 0.000000
		CHANNELS 3 Xrotation Yrotation Zrotation
		JOINT RightUpLeg
		{
			OFFSET -10.205400 -3.823500 0.005500
			CHANNELS 3 Xrotation Yrotation Zrotation
			JOINT RightLeg
			{
				OFFSET -0.708756 -12.982134 0.610632
				CHANNELS 3 Xrotation Yrotation Zrotation
				JOINT RightFoot
				{
					OFFSET 0.708754 -10.717769 -1.945823
					CHANNELS 3 Xrotation Yrotation Zrotation
					JOINT RightToeBase
					{
						OFFSET -0.108140 -7.191069 7.372968
						CHANNELS 3 Xrotation Yrotation Zrotation
						JOINT RightToe_End
						{
							OFFSET -0.070227 0.081735 4.479403
							CHANNELS 3 Xrotation Yrotation Zrotation
							End Site
							{
								OFFSET 0 0 0
							}
						}
					}
				}
			}
		}
	}
	JOINT Spine_virtual
	{
		OFFSET 0.000000 0.000000 0.000000
		CHANNELS 3 Xrotation Yrotation Zrotation
		JOINT Spine
		{
			OFFSET 0.000000 6.876099 0.125700
			CHANNELS 3 Xrotation Yrotation Zrotation
			JOINT Spine1
			{
				OFFSET 0.000000 5.730043 0.104720
				CHANNELS 3 Xrotation Yrotation Zrotation
				JOINT Spine1_split
				{
					OFFSET 0.000000 5.730043 0.104720
					CHANNELS 3 Xrotation Yrotation Zrotation
					JOINT Spine2
					{
						OFFSET 0.000000 5.730043 0.104720
						CHANNELS 3 Xrotation Yrotation Zrotation
						JOINT Neck_virtual
						{
							OFFSET 0.000000 0.000000 0.000000
							CHANNELS 3 Xrotation Yrotation Zrotation
							JOINT Neck
							{
								OFFSET 0.000000 10.314075 0.188496
								CHANNELS 3 Xrotation Yrotation Zrotation
								JOINT Head
								{
									OFFSET 0.000000 7.643700 -2.377400
									CHANNELS 3 Xrotation Yrotation Zrotation
									JOINT HeadTop_End
									{
										OFFSET 0.000000 43.788605 -13.619600
										CHANNELS 3 Xrotation Yrotation Zrotation
										End Site
										{
											OFFSET 0 0 0
										}
									}
								}
							}
						}
						JOINT LeftShoulder_virtual
						{
							OFFSET 0.000000 0.000000 0.000000
							CHANNELS 3 Xrotation Yrotation Zrotation
							JOINT LeftShoulder
							{
								OFFSET 2.196100 4.412489 0.087492
								CHANNELS 3 Xrotation Yrotation Zrotation
								JOINT LeftShoulder_split
								{
									OFFSET 2.196100 4.412489 0.087492
									CHANNELS 3 Xrotation Yrotation Zrotation
									JOINT LeftArm
									{
										OFFSET 8.771219 -2.981674 -0.026999
										CHANNELS 3 Xrotation Yrotation Zrotation
										JOINT LeftForeArm
										{
											OFFSET 8.512804 0.000000 -0.000000
											CHANNELS 3 Xrotation Yrotation Zrotation
											JOINT LeftHand
											{
												OFFSET 18.484802 0.000000 -0.000000
												CHANNELS 3 Xrotation Yrotation Zrotation
												End Site
												{
													OFFSET 0 0 0
												}
											}
										}
									}
								}
							}
						}
						JOINT RightShoulder_virtual
						{
							OFFSET 0.000000 0.000000 0.000000
							CHANNELS 3 Xrotation Yrotation Zrotation
							JOINT RightShoulder
							{
								OFFSET -2.196100 4.412496 0.070690
								CHANNELS 3 Xrotation Yrotation Zrotation
								JOINT RightShoulder_split
								{
									OFFSET -2.196100 4.412496 0.070690
									CHANNELS 3 Xrotation Yrotation Zrotation
									JOINT RightArm
									{
										OFFSET -8.771282 -2.981682 -0.094208
										CHANNELS 3 Xrotation Yrotation Zrotation
										JOINT RightForeArm
										{
											OFFSET -8.494598 0.000000 0.000000
											CHANNELS 3 Xrotation Yrotation Zrotation
											JOINT RightHand
											{
												OFFSET -18.483803 0.000000 0.000001
												CHANNELS 3 Xrotation Yrotation Zrotation
												End Site
												{
													OFFSET 0 0 0
												}
											}
										}
									}
								}
							}
						}
					}
				}
			}
		}
	}
}
MOTION
Frames: 11
Frame Time: 0.03333333
2.294075 27.391401 -0.332520 0.000000 0.000000 0.000000 3.865449 6.507754 -3.084449 16.641761 21.055641 18.634872 43.497664 5.505587 -6.642227 -36.827147 15.079070 -13.031088 -27.865696 -2.378328 1.604704 0.000000 0.000000 0.000000 3.256280 5.322439 -3.282823 -58.395556 14.652817 -4.407738 64.614348 -2.723620 4.936108 -8.457179 -6.530964 17.853281 1.578601 6.645880 -13.728970 0.000000 0.000000 0.000000 3.678045 8.840573 -1.647138 1.540217 -3.892700 -0.465351 5.590513 -5.014610 2.483637 -0.097643 -0.344327 -0.321140 0.000000 0.000000 0.000000 5.005077 -3.221152 3.513911 -3.471456 7.682032 -6.316536 -16.186985 -25.553566 -27.108695 0.000000 0.000000 0.000000 5.530812 -5.086027 1.861977 0.475537 4.154084 2.924648 -1.046699 0.854119 2.570874 -15.491499 6.452866 -59.777187 133.426106 -73.587440 126.740294 0.000000 0.000000 0.000000 6.022258 -4.294173 3.415890 -2.766983 -5.552848 12.507366 -0.471169 4.563140 2.085412 -9.871061 -7.917643 61.955635 -175.672725 56.371149 -176.416328 0.000000 0.000000 0.000000 
2.122925 28.052135 -0.351107 0.000000 0.000000 0.000000 4.049454 7.311381 -2.951619 14.122914 18.085241 20.090394 45.541379 6.353725 -7.437145 -26.855947 14.624157 -10.932078 -25.264772 -1.815538 0.357419 0.000000 0.000000 0.000000 3.098551 6.535427 -3.119036 -55.589704 14.016358 -5.520256 60.697166 -3.346399 5.036488 -6.877842 -6.480462 19.422241 -1.296517 7.029638 -13.159137 0.000000 0.000000 0.000000 3.416877 9.508049 -2.022614 1.178299 -3.806667 0.337336 5.599499 -4.952583 2.467609 -0.249762 0.092096 -0.202148 0.000000 0.000000 0.000000 4.780691 -3.214671 3.298380 -3.393012 7.653141 -6.227755 -15.595946 -25.412055 -27.027900 0.000000 0.000000 0.000000 5.755461 -5.015283 1.917583 0.538202 2.445872 3.550975 0.521961 -1.556594 3.092892 -20.166255 4.693922 -59.604459 136.172170 -73.050267 129.811297 0.000000 0.000000 0.000000 6.357141 -4.195679 3.165683 -2.964527 -5.091949 11.338496 -1.546278 5.166601 0.368080 -13.595631 -6.387554 62.846305 -176.123285 52.345702 -177.023026 0.000000 0.000000 0.000000 
1.929705 29.093613 -0.273479 0.000000 0.000000 0.000000 3.792764 9.568872 -2.926448 8.618493 14.480792 21.046567 47.879787 7.971542 -7.393433 -10.889621 13.238512 -9.683410 -23.391562 -0.604943 -3.503792 0.000000 0.000000 0.000000 3.254768 8.805381 -3.148920 -50.253472 12.971275 -6.029782 52.991490 -5.358506 4.892933 -5.649472 -7.612191 17.417850 -1.667950 7.122014 -10.970835 0.000000 0.000000 0.000000 3.191914 11.159567 -2.503045 0.713898 -3.644238 1.688257 5.731095 -4.953228 2.136780 -0.149573 0.481835 -0.015073 0.000000 0.000000 0.000000 4.719398 -3.144444 2.742156 -2.770843 7.510602 -5.713025 -14.055609 -25.167389 -25.917269 0.000000 0.000000 0.000000 6.161062 -4.872881 1.769266 0.654096 0.041790 3.555331 2.289266 -2.791106 2.319720 -27.608892 0.746603 -58.231754 140.416668 -73.469524 134.531900 0.000000 0.000000 0.000000 6.903590 -4.113988 2.617802 -3.112463 -5.020810 9.008551 -1.605931 3.421233 -0.309748 -20.948226 -1.814678 63.007430 -175.515890 51.659162 -178.817194 0.000000 0.000000 0.000000 
1.912636 30.225056 -0.226379 0.000000 0.000000 0.000000 3.251808 12.047674 -3.019321 0.525263 11.013119 21.315246 51.231630 9.269053 -6.558173 8.418414 10.145726 -10.596498 -27.264544 1.044067 -7.617373 0.000000 0.000000 0.000000 3.255205 11.239717 -3.290820 -44.058941 11.433052 -5.773345 44.453279 -7.828397 4.603244 -3.753388 -9.447650 13.320040 -1.038145 7.088332 -8.000581 0.000000 0.000000 0.000000 2.983759 13.445674 -2.779221 0.241515 -3.447520 3.208212 6.042454 -5.005964 1.652022 0.039765 0.710472 0.120036 0.000000 0.000000 0.000000 4.955915 -3.007696 2.082674 -1.788136 7.366810 -4.769775 -12.004434 -24.492809 -24.263216 0.000000 0.000000 0.000000 6.694652 -4.694759 1.570375 0.707704 -2.628983 3.120041 3.507695 -2.422042 1.147092 -36.798395 -4.684152 -56.507285 143.088952 -75.316578 137.776349 0.000000 0.000000 0.000000 7.584461 -4.079382 1.987871 -3.280260 -5.308172 5.866921 -0.874332 0.919672 -0.089720 -30.598281 4.480929 63.370721 -173.556118 54.731686 178.177041 0.000000 0.000000 0.000000 
1.983671 31.188797 -0.053338 0.000000 0.000000 0.000000 2.279587 14.083597 -2.821157 -9.678564 7.652946 20.515091 57.279151 9.496646 -4.758925 26.346353 4.886205 -12.685680 -35.515351 2.940347 -10.083220 0.000000 0.000000 0.000000 2.784022 13.493054 -3.292771 -39.192363 9.414769 -4.891600 38.301030 -9.203957 4.457308 -0.808983 -10.878863 10.398817 -2.230505 7.154630 -5.345525 0.000000 0.000000 0.000000 2.626795 16.120988 -2.570285 -0.031605 -3.231152 4.421844 6.575181 -5.058607 1.219019 0.185712 0.648682 0.139877 0.000000 0.000000 0.000000 5.569744 -2.840220 1.596387 -0.763123 7.253030 -3.435173 -10.061137 -23.075244 -22.734112 0.000000 0.000000 0.000000 7.278610 -4.518367 1.474939 0.651979 -5.096149 2.799450 4.045040 -1.085623 0.050541 -46.920319 -11.008346 -55.205933 140.685177 -78.944542 136.075741 0.000000 0.000000 0.000000 8.196471 -4.100343 1.516543 -3.580655 -5.840832 2.228519 -0.439731 -1.120373 0.265822 -41.412844 10.736638 64.363277 -168.528839 61.627048 172.492083 0.000000 0.000000 0.000000 
2.082966 31.787266 0.361985 0.000000 0.000000 0.000000 0.768051 15.856711 -2.190938 -21.669064 5.129297 18.171221 67.575972 9.803088 -3.140102 37.175483 0.141058 -12.894462 -39.757384 4.339060 -11.812445 0.000000 0.000000 0.000000 1.548756 15.244897 -2.871042 -36.339803 7.127807 -3.682620 36.273875 -8.630522 4.548304 1.703149 -11.081875 9.623362 -5.190576 7.214801 -3.740507 0.000000 0.000000 0.000000 1.649378 18.474548 -1.954768 0.156409 -2.982059 4.965823 7.223751 -5.046934 0.986998 0.210799 0.380321 0.057182 0.000000 0.000000 0.000000 6.495666 -2.664044 1.455279 -0.000409 7.181126 -1.807440 -8.671584 -20.879379 -21.829807 0.000000 0.000000 0.000000 7.871045 -4.326767 1.614059 0.524270 -6.856296 3.065763 4.296195 0.226271 -0.568626 -56.795601 -16.897868 -54.939183 121.277085 -83.604200 117.483297 0.000000 0.000000 0.000000 8.664360 -4.162564 1.358593 -4.081456 -6.498463 -1.737208 -0.591287 -2.467147 0.379022 -52.099074 15.308867 65.857989 -154.682857 71.108007 158.663327 0.000000 0.000000 0.000000 
2.233335 31.904789 0.703688 0.000000 0.000000 0.000000 -1.107145 17.323031 -1.100271 -33.841268 4.029133 14.580420 79.885483 10.962242 -2.123928 38.987297 -1.802855 -11.008638 -37.422060 4.445720 -12.529838 0.000000 0.000000 0.000000 -0.440933 16.276839 -1.761457 -35.084957 4.765642 -2.758204 38.356536 -6.054933 4.842247 1.548606 -9.832593 9.895321 -6.926498 7.204561 -3.467126 0.000000 0.000000 0.000000 -0.155862 19.845555 -1.082720 0.959800 -2.601973 4.717455 7.915068 -4.892856 1.047864 0.078563 0.173126 -0.068397 0.000000 0.000000 0.000000 7.555808 -2.462740 1.673598 0.437262 7.154554 -0.042872 -7.691327 -18.171334 -21.643654 0.000000 0.000000 0.000000 8.442358 -4.080933 1.987727 0.528124 -7.631161 4.359956 3.967539 0.817608 -0.669485 -66.070783 -21.338426 -55.736314 53.203144 -84.620942 50.319206 0.000000 0.000000 0.000000 8.931328 -4.202741 1.459297 -4.813182 -7.123765 -6.017299 -0.991671 -2.857301 -0.101832 -61.908671 17.151365 67.168360 -112.214045 78.139188 116.896201 0.000000 0.000000 0.000000 
2.342700 31.534857 1.014326 0.000000 0.000000 0.000000 -3.218723 18.078706 0.237507 -44.410057 3.438706 10.583568 91.016505 12.547655 -1.707635 34.919472 -1.524624 -8.235942 -29.330140 3.517327 -12.363203 0.000000 0.000000 0.000000 -2.647210 16.510434 -0.327446 -34.727902 2.383228 -2.260804 43.291996 -2.433080 5.014450 -2.352893 -7.775204 9.778734 -5.674630 7.171019 -4.098450 0.000000 0.000000 0.000000 -2.679263 20.020866 -0.183565 2.246583 -1.988181 3.780893 8.538496 -4.572422 1.365218 -0.061304 0.090314 -0.170184 0.000000 0.000000 0.000000 8.597180 -2.212568 2.121590 0.761524 7.111057 1.731787 -6.702105 -15.454490 -21.980908 0.000000 0.000000 0.000000 8.913421 -3.777520 2.425372 0.672943 -7.446230 6.911908 3.238062 1.033276 -0.290906 -74.339383 -23.883268 -57.362995 20.612270 -79.834536 18.608087 0.000000 0.000000 0.000000 9.073053 -4.120175 1.711880 -5.651086 -7.627400 -10.594132 -1.676368 -2.576869 -0.750580 -70.204277 16.467400 67.585958 -63.704191 74.354518 69.746231 0.000000 0.000000 0.000000 
2.446007 30.777855 1.376828 0.000000 0.000000 0.000000 -5.384301 18.049791 1.438850 -54.000801 2.588875 7.580894 99.623630 13.530622 -1.571111 30.926885 -1.166924 -6.557151 -20.303885 2.527080 -11.276127 0.000000 0.000000 0.000000 -4.919802 16.261198 0.841185 -34.143487 0.064098 -1.718062 49.705001 1.096659 4.526888 -9.317368 -5.990604 8.375663 -2.923272 7.026192 -4.913637 0.000000 0.000000 0.000000 -5.674496 19.391689 0.576730 3.844606 -1.161869 2.480536 9.015717 -4.136325 1.751504 -0.143465 0.040051 -0.173461 0.000000 0.000000 0.000000 9.489577 -1.889750 2.591419 1.238118 7.059498 3.378825 -5.217637 -13.215728 -22.413247 0.000000 0.000000 0.000000 9.200211 -3.403637 2.718857 0.811127 -6.613843 10.227188 2.240512 0.589997 0.243001 -81.060248 -24.326231 -59.056971 12.671681 -75.653183 11.366886 0.000000 0.000000 0.000000 9.201109 -3.894385 1.957905 -6.398092 -7.939700 -15.127947 -2.487302 -2.359289 -1.087873 -76.688544 14.165274 66.872757 -49.285675 67.680344 57.189252 0.000000 0.000000 0.000000 
2.598310 29.807854 1.682790 0.000000 0.000000 0.000000 -7.623911 17.086724 2.231841 -63.229588 1.558949 5.647412 105.932976 14.114015 -1.406197 30.994756 -1.351450 -5.324535 -15.930195 1.973331 -9.314809 0.000000 0.000000 0.000000 -7.118663 15.919802 1.553986 -32.262081 -2.137286 -0.750687 56.164225 3.612340 3.207487 -18.021925 -5.289621 5.518510 -0.986213 6.782343 -5.472188 0.000000 0.000000 0.000000 -8.830057 18.261559 1.182629 5.339150 -0.214338 1.228920 9.366652 -3.644914 2.005508 -0.179413 -0.039002 -0.099642 0.000000 0.000000 0.000000 10.178691 -1.495392 2.858958 2.120041 7.026978 4.694250 -2.989860 -11.795663 -22.591566 0.000000 0.000000 0.000000 9.299922 -2.997760 2.735253 0.914462 -5.652639 13.696616 1.109523 -0.057814 0.327369 -86.514885 -23.421931 -60.295011 9.835443 -73.434847 8.889944 0.000000 0.000000 0.000000 9.341435 -3.544158 2.066910 -6.902285 -7.887032 -19.267540 -2.977157 -2.004155 -0.447152 -81.595742 11.767695 64.933577 -47.767778 63.516053 57.666003 0.000000 0.000000 0.000000 
2.748501 28.909201 2.132401 0.000000 0.000000 0.000000 -9.779803 15.459066 2.563185 -70.993983 0.713757 4.005352 110.938350 15.252543 -1.120610 34.696565 -0.999970 -3.105488 -14.090175 1.846165 -8.412092 0.000000 0.000000 0.000000 -9.027434 15.423588 1.847934 -28.982504 -4.053832 0.947911 61.267678 4.770859 1.315708 -27.235128 -5.600385 1.314611 -0.081897 6.472738 -5.611262 0.000000 0.000000 0.000000 -11.581611 16.771226 1.624483 6.287234 0.725532 0.275566 9.596868 -3.213098 2.011268 -0.105361 -0.165856 0.000407 0.000000 0.000000 0.000000 10.647517 -1.093484 2.829993 3.503054 7.077563 5.494201 -0.059885 -11.261205 -22.204448 0.000000 0.000000 0.000000 9.329420 -2.646138 2.484409 1.022954 -5.100387 16.645330 0.756612 -0.928239 0.314121 -90.499351 -21.973253 -60.650550 7.920176 -72.687358 6.953351 0.000000 0.000000 0.000000 9.526330 -3.101289 2.060523 -6.944326 -7.331543 -22.384198 -2.859293 -1.955640 0.690980 -85.325284 10.615152 62.077773 -50.408323 61.442244 62.037454 0.000000 0.000000 0.000000 
